<svg width="256" height="256" viewBox="0 0 256 256" fill="none" xmlns="http://www.w3.org/2000/svg">
<path d="M132 80C132 43.766 139.766 36 176 36C212.234 36 220 43.766 220 80C220 116.234 212.234 124 176 124C139.766 124 132 116.234 132 80Z" fill="url(#paint0_linear_187_2436)"/>
<path d="M36 176C36 139.766 43.766 132 80 132C116.234 132 124 139.766 124 176C124 212.234 116.234 220 80 220C43.766 220 36 212.234 36 176Z" fill="url(#paint1_linear_187_2436)"/>
<path d="M36 80C36 43.766 43.766 36 80 36C116.234 36 124 43.766 124 80C124 116.234 116.234 124 80 124C43.766 124 36 116.234 36 80Z" fill="url(#paint2_linear_187_2436)"/>
<path d="M132 176C132 139.766 139.766 132 176 132C212.234 132 220 139.766 220 176C220 212.234 212.234 220 176 220C139.766 220 132 212.234 132 176Z" fill="url(#paint3_linear_187_2436)"/>
<defs>
<linearGradient id="paint0_linear_187_2436" x1="176" y1="36" x2="176" y2="124" gradientUnits="userSpaceOnUse">
<stop stop-color="#424242"/>
<stop offset="1"/>
</linearGradient>
<linearGradient id="paint1_linear_187_2436" x1="80" y1="132" x2="80" y2="220" gradientUnits="userSpaceOnUse">
<stop stop-color="#EAEAEA"/>
<stop offset="1" stop-color="#999999"/>
</linearGradient>
<linearGradient id="paint2_linear_187_2436" x1="80" y1="36" x2="80" y2="124" gradientUnits="userSpaceOnUse">
<stop stop-color="#EAEAEA"/>
<stop offset="1" stop-color="#999999"/>
</linearGradient>
<linearGradient id="paint3_linear_187_2436" x1="176" y1="132" x2="176" y2="220" gradientUnits="userSpaceOnUse">
<stop stop-color="#EAEAEA"/>
<stop offset="1" stop-color="#999999"/>
</linearGradient>
</defs>
</svg>
